PathFileType	4	(X/Y/Z)	D:\TRACE\spotREDO_2-26-24\spot_Both_Motion_3_3-v60.trc
DataRate	CameraRate	NumFrames	NumMarkers	Units	OrigDataRate	OrigDataStartFrame	OrigNumFrames
100.00	100.00	      42	9	mm	100.00	5251	      7000
Frame#	Time	front left toe			Front right toe			aft left toe			aft right toe			Arm			FL body			FR body			AL Body			AR Body			
		X1	Y1	Z1	X2	Y2	Z2	X3	Y3	Z3	X4	Y4	Z4	X5	Y5	Z5	X6	Y6	Z6	X7	Y7	Z7	X8	Y8	Z8	X9	Y9	Z9	

5251	52.500	-149.73621	13.38668	-443.51257	269.00363	8.37992	-558.48022	-25.44678	20.29652	170.45801	364.73468	27.64032	49.06716	48.44460	699.92950	-775.32220	-27.81082	570.07678	-557.33948	125.96573	572.78601	-577.92841	80.52901	564.33240	320.46573	226.95418	555.31000	303.49014	
5252	52.510	-149.58371	13.10999	-443.58911	269.16776	8.11232	-558.66742	-24.62320	19.89153	170.51753	364.85635	27.69938	48.92601	48.48504	699.78406	-775.30896	-27.45505	569.94891	-557.82214	126.36951	572.68500	-578.33331	80.69889	563.86908	319.61716	227.36205	555.26453	302.89835	
5253	52.520	-149.45625	12.88245	-443.69110	269.39700	7.73216	-558.73322	-24.74304	20.00274	170.44109	364.86172	27.64704	48.84383	48.43270	699.71735	-775.35944	-27.17329	569.92987	-558.38696	126.59226	572.75684	-578.94897	81.87666	563.03937	318.88544	228.05634	555.05908	302.44360	
5254	52.530	-149.14714	12.46033	-443.89105	269.04642	7.49366	-558.91943	-24.75349	20.14511	170.28525	364.85471	27.58213	48.71627	48.48512	699.73865	-775.34796	-26.89369	569.88379	-558.75629	126.92602	572.76019	-579.39490	82.28576	562.96381	318.36905	228.65654	554.90271	301.98163	
5255	52.540	-149.08830	12.20881	-444.01892	269.05099	7.10800	-559.35028	-24.70601	20.33514	169.95699	364.84967	27.64958	48.36880	48.72183	700.17206	-775.42633	-26.77540	569.76855	-559.08258	126.59221	572.62146	-580.04584	83.07017	562.74957	317.50983	229.30424	555.19055	301.10428	
5256	52.550	-149.11761	11.84638	-444.18857	269.42377	7.02526	-559.31488	-24.63393	20.54808	169.81511	364.94870	27.76520	48.15570	49.77020	700.53955	-775.42242	-26.60176	569.23572	-559.52661	126.73636	572.24908	-580.59436	83.46125	563.23779	317.16776	229.66859	555.32574	300.55850	
5257	52.560	-149.17033	11.48247	-444.33298	269.72037	6.13936	-559.34863	-24.22870	20.58053	169.78128	365.03186	27.70000	47.91853	50.90942	700.40448	-775.08667	-26.64679	568.99365	-560.06671	127.16754	571.79218	-581.01520	84.16570	563.38776	316.83685	230.41295	555.62073	300.20755	
5258	52.570	-148.92310	10.98600	-444.46439	269.81131	5.65931	-559.36688	-23.79662	20.54241	169.58374	365.27817	27.65189	47.80848	51.78646	700.39813	-775.22504	-26.19111	568.67407	-560.46204	127.58355	571.71698	-581.37561	84.85417	563.28888	316.47327	231.18124	555.46552	299.61542	
5259	52.580	-148.66516	10.64585	-444.63474	269.19586	5.15036	-559.91101	-23.70773	20.69777	169.42982	365.63464	27.58763	47.79080	52.51165	700.39203	-775.30627	-25.49844	568.44836	-560.94080	128.05032	571.58038	-581.71393	85.07854	563.22449	316.16394	231.63908	555.45660	299.32513	
5260	52.590	-148.52554	10.54238	-444.74243	269.43051	4.84547	-560.03687	-23.53098	20.72436	169.35052	365.98248	27.72131	47.83979	52.33845	700.47107	-775.20496	-24.69300	568.35925	-561.17474	128.79828	571.40485	-582.05066	85.48554	563.13910	315.83954	231.74442	555.59503	299.11621	
5261	52.600	-148.31984	10.28436	-444.85815	270.44153	4.19959	-560.07019	-23.43258	20.94440	169.30290	366.15674	27.80540	47.79083	52.42387	700.44501	-775.28656	-23.80222	568.10846	-561.32928	129.77948	571.26477	-582.32733	85.89430	563.13116	315.55606	232.23732	555.51471	299.02304	
5262	52.610	-147.94189	9.78488	-445.11066	270.83109	3.77253	-559.92145	-23.26000	20.92432	169.22458	366.25021	27.71891	47.71958	51.84209	700.30695	-775.32153	-22.43105	567.73315	-561.74414	130.98050	571.03900	-582.40979	86.14424	563.15204	315.36130	232.62794	555.50909	298.97504	
5263	52.620	-147.61200	9.45893	-445.26590	271.28592	3.13026	-559.85791	-24.34505	21.66934	169.26056	366.50555	27.72169	47.71198	51.49103	700.11560	-775.24585	-21.63056	567.46393	-561.93988	132.05067	570.59387	-582.51074	86.51684	563.11188	315.21609	233.26224	555.53149	298.97290	
5264	52.630	-147.35849	9.16565	-445.38312	271.41861	2.45465	-560.12268	-24.02800	21.77308	169.26451	366.56384	27.67868	47.64830	50.63276	700.07935	-775.27362	-20.73365	567.12549	-562.14734	133.15787	570.17218	-582.58026	86.23959	563.61499	315.26535	233.68147	555.54657	298.97681	
5265	52.640	-147.16704	8.88708	-445.50134	272.00894	2.14532	-559.95148	-23.68171	22.00061	169.20770	366.76865	27.73241	47.54139	50.21317	699.85315	-775.29321	-19.48274	566.80103	-562.39252	134.16820	569.89307	-582.70990	86.92475	563.11560	314.89270	234.15610	555.62262	299.02075	
5266	52.650	-146.87276	8.67475	-445.63763	272.17868	1.77598	-560.08301	-23.51301	22.17920	169.12956	367.17392	27.66043	47.50499	49.96046	699.59491	-775.32800	-18.73709	566.44916	-562.45874	134.70389	569.85992	-583.00183	88.03090	562.97577	314.81345	235.08453	555.64429	298.89417	
5267	52.660	-146.67386	8.42654	-445.66257	272.56729	1.36906	-560.13892	-22.91787	22.31757	169.06949	367.48743	27.59109	47.36921	49.88174	699.31995	-775.27130	-17.78697	566.07025	-562.41534	135.86050	569.69794	-582.94183	88.12826	562.97546	314.65042	236.04027	555.58344	298.69409	
5268	52.670	-145.93010	7.96694	-445.66089	272.68253	0.85858	-560.26270	-22.51966	22.43955	168.88142	367.76596	27.66217	47.14344	49.92689	699.17773	-775.26257	-17.07260	565.64801	-562.49951	136.67348	569.45709	-582.95740	90.14616	562.74396	314.75592	236.56602	555.60333	298.54044	
5269	52.680	-145.99205	7.52420	-445.84625	273.09613	0.48507	-560.44214	-22.29727	22.56264	168.66632	367.93082	27.64851	46.88782	50.30202	698.81683	-775.09137	-16.24207	565.16034	-562.65765	138.17122	569.07178	-582.94025	90.93697	562.77069	314.67700	238.28017	555.55988	298.36603	
5270	52.690	-145.62837	7.13661	-445.95474	273.19223	0.20718	-560.49249	-21.71771	22.74794	168.50238	368.27908	27.68608	46.88422	50.49621	698.59558	-775.10297	-15.71922	564.92279	-562.64532	138.85054	568.79437	-583.00500	91.67304	563.29114	314.70807	239.16461	555.79364	298.35992	
5271	52.700	-145.45367	6.96048	-445.97318	273.37082	-0.17498	-560.66638	-21.28837	22.93901	168.40311	368.64456	27.73845	46.82371	51.30079	698.27319	-775.28625	-14.60179	564.48138	-562.46710	139.53003	568.52051	-582.95422	93.38687	562.63757	314.64972	240.59569	555.76935	298.36063	
5272	52.710	-145.22185	6.73468	-446.04742	272.75858	-1.27170	-561.39508	-21.01831	23.18817	168.27672	368.76105	27.52008	46.62584	51.28977	698.29541	-775.18390	-13.72017	564.12024	-562.24786	140.33199	568.23578	-582.93500	95.76229	562.26007	314.87344	241.48724	555.70355	298.45090	
5273	52.720	-144.97697	6.53076	-446.10968	273.76178	-1.61204	-560.98334	-20.60345	23.17419	168.19958	369.07971	27.45307	46.46240	51.80135	698.13129	-775.27081	-12.55304	563.67908	-562.32471	141.29764	567.85223	-582.76343	96.57091	562.29077	314.91782	242.66957	555.85034	298.50983	
5274	52.730	-144.74341	6.32972	-446.27164	273.84573	-2.07965	-561.05048	-20.42822	23.38215	168.18893	369.78098	27.63572	46.53757	52.08535	698.01807	-775.36884	-11.44019	563.19446	-562.20032	142.13678	567.36560	-582.82092	96.74536	562.60565	314.92731	243.56433	556.02692	298.58829	
5275	52.740	-144.22420	5.93645	-446.47064	274.36877	-2.57158	-561.16443	-20.25401	23.46489	168.09561	370.16306	27.75262	46.58899	52.28577	697.76715	-775.44971	-10.00267	562.65332	-561.90277	142.99603	567.02960	-582.59229	98.57000	562.53259	315.08325	244.47935	556.15442	298.74402	
5276	52.750	-143.92685	5.57715	-446.74701	274.92065	-2.91658	-561.14001	-19.84066	23.67042	167.87636	370.38858	27.79804	46.50233	52.31781	697.70172	-775.46454	-8.95521	562.23871	-562.00647	143.99083	566.65588	-582.33612	99.23816	562.54022	315.27609	245.84135	556.04626	299.09515	
5277	52.760	-143.60306	5.23635	-446.94031	275.11636	-3.65095	-561.20630	-19.42318	23.73601	167.77603	370.57864	27.62461	46.46064	52.33852	697.62769	-775.45410	-7.60519	561.96985	-561.88049	144.96715	566.18738	-582.10144	100.30151	562.53583	315.50122	246.76976	556.07660	299.39749	
5278	52.770	-143.51134	4.74290	-447.14767	275.76147	-4.05293	-561.16083	-18.94223	23.82798	167.67973	370.74823	27.46046	46.30032	52.25151	697.58398	-775.46906	-6.27389	561.63196	-561.68921	145.95586	565.92047	-581.86194	101.46112	562.43646	315.69791	247.76872	556.10571	299.49496	
5279	52.780	-143.16026	4.49043	-447.18060	276.14700	-4.57272	-561.17188	-18.56402	24.15824	167.63884	371.10413	27.39903	46.31522	52.32779	697.56799	-775.42603	-4.84308	561.04980	-561.50409	146.95488	565.52826	-581.38470	102.36864	562.53278	315.92783	248.91501	556.27167	299.87723	
5280	52.790	-142.62181	4.42932	-447.30396	275.97763	-4.87662	-561.42560	-18.31584	24.27300	167.51799	371.48755	27.32622	46.18252	52.29748	697.47095	-775.44104	-3.40350	560.56586	-561.00391	148.00096	565.24249	-581.13776	103.85757	562.60907	316.35367	250.33499	556.39771	300.37253	
5281	52.800	-142.24222	4.05723	-447.36792	276.60037	-5.75862	-561.36310	-17.99371	24.47512	167.40450	371.72690	27.18021	45.84784	52.35703	697.42700	-775.51489	-2.14407	560.30634	-560.88849	151.99434	564.69073	-580.94128	105.06048	562.62421	316.68991	251.59134	556.32135	300.79092	
5282	52.810	-141.92471	3.92174	-447.34256	277.04999	-6.02844	-561.45190	-17.76241	24.74696	167.25327	372.32074	27.33061	45.96532	52.26006	697.34985	-775.44171	-0.71707	559.97479	-560.43976	153.31419	564.56207	-580.59131	106.50622	562.53375	317.06323	253.00801	556.03625	300.97427	
5283	52.820	-141.48720	3.71966	-447.41986	277.28821	-6.22900	-561.59924	-17.16490	24.82823	167.29904	372.74246	27.39159	45.95705	53.04142	697.08319	-775.76514	0.69091	559.57574	-560.09344	154.58650	564.25446	-580.18634	107.96628	562.40094	317.49573	254.29520	556.39594	301.50430	
5284	52.830	-141.13498	3.51272	-447.53745	277.40198	-7.15472	-561.94873	-16.76219	24.80803	167.27342	373.21765	27.41039	45.90182	53.34665	696.76563	-775.64154	2.14963	559.22528	-559.54669	156.06941	563.90784	-579.80347	109.44146	562.56342	317.93008	256.06573	556.37396	301.81467	
5285	52.840	-140.58250	3.01816	-447.66626	277.72412	-7.79933	-561.94019	-16.34572	25.14338	167.14565	373.67892	27.38105	45.84387	53.85682	696.26910	-775.67078	3.69974	558.96124	-559.21399	157.42010	563.51825	-579.44299	110.86719	562.42712	318.26767	257.89600	556.36499	302.62842	
5286	52.850	-140.14839	2.55173	-447.70987	278.14102	-8.02750	-561.77600	-16.01335	25.25541	167.10965	374.09924	27.20522	45.87852	54.18663	695.92493	-775.60364	5.28554	558.53796	-558.64130	159.07703	563.02271	-578.98822	112.44804	562.32465	318.85382	258.98941	556.50848	302.76990	
5287	52.860	-139.77574	2.26696	-447.63574	278.69080	-8.33785	-561.76245	-15.59489	25.46103	167.11632	374.26102	27.15022	45.91766	54.53475	695.73730	-775.57141	6.84621	558.33600	-558.18103	160.50058	562.78540	-578.36664	114.10732	562.47308	319.27310	260.51553	556.45972	303.10410	
5288	52.870	-139.28011	2.00948	-447.61804	279.28467	-8.63060	-561.72754	-15.26034	25.56805	166.96071	374.67780	27.24202	45.98238	54.89542	695.54456	-775.53900	8.65284	557.89215	-557.53394	161.94377	562.43481	-577.81836	115.79785	562.53613	319.90247	262.41006	556.47449	303.89975	
5289	52.880	-138.91151	1.77849	-447.67868	279.84436	-9.20727	-561.75580	-14.82005	25.79556	166.81134	375.33322	27.26511	45.91986	55.15154	695.39539	-775.49951	10.34623	557.44330	-556.92224	164.32314	561.57092	-576.79498	117.51601	562.35486	320.50153	263.87433	556.37433	304.50296	
5290	52.890	-138.50084	1.55299	-447.79340	280.28607	-9.41148	-561.90381	-14.55224	25.97104	166.70187	375.77585	27.27175	45.78686	55.38606	695.19287	-775.53741	12.09374	557.16089	-556.31049	166.36583	561.40082	-576.06470	119.26913	562.22095	321.12607	265.80710	556.42395	305.33987	
5291	52.900	-138.09662	0.93075	-447.89371	280.59094	-9.68214	-561.97314	-14.16387	26.13860	166.70976	375.89322	27.32566	45.59153	55.32175	695.13745	-775.46271	14.15646	556.85876	-555.43848	168.12437	561.07184	-575.35516	121.18757	562.47156	321.93945	267.74280	556.22241	305.87079	
5292	52.910	-137.96930	3.27818	-447.41092	279.93994	-11.17905	-562.37347	-13.62616	26.43636	166.92677	376.75897	26.94995	46.15971	55.47601	695.04816	-775.38794	16.35572	556.87463	-554.76105	170.28116	560.77417	-574.52368	123.19976	562.30719	322.62888	269.62271	556.15430	306.77042	
